<svg width="12" height="12" viewBox="0 0 12 12" fill="none" xmlns="http://www.w3.org/2000/svg">
<path d="M10.5873 4.81947C10.4105 4.63509 10.2276 4.44447 10.1586 4.27744C10.0951 4.12399 10.0912 3.86984 10.0875 3.62402C10.0806 3.16658 10.0728 2.64812 9.71233 2.28767C9.35188 1.92723 8.83342 1.9194 8.37598 1.91249C8.13016 1.90878 7.87601 1.90494 7.72256 1.84145C7.55557 1.77237 7.36491 1.58954 7.18053 1.4127C6.85666 1.10207 6.48949 0.75 6 0.75C5.51051 0.75 5.14339 1.10207 4.81947 1.4127C4.63509 1.58954 4.44447 1.77237 4.27744 1.84145C4.12399 1.90494 3.86984 1.90878 3.62402 1.91249C3.16658 1.9194 2.64812 1.92723 2.28767 2.28767C1.92723 2.64812 1.9194 3.16658 1.91249 3.62402C1.90878 3.86984 1.90494 4.12399 1.84145 4.27744C1.77237 4.44443 1.58954 4.63509 1.4127 4.81947C1.10207 5.14334 0.75 5.51051 0.75 6C0.75 6.48949 1.10207 6.85661 1.4127 7.18053C1.58954 7.36491 1.77237 7.55553 1.84145 7.72256C1.90494 7.87601 1.90878 8.13016 1.91249 8.37598C1.9194 8.83342 1.92723 9.35188 2.28767 9.71233C2.64812 10.0728 3.16658 10.0806 3.62402 10.0875C3.86984 10.0912 4.12399 10.0951 4.27744 10.1586C4.44443 10.2276 4.63509 10.4105 4.81947 10.5873C5.14334 10.8979 5.51051 11.25 6 11.25C6.48949 11.25 6.85661 10.8979 7.18053 10.5873C7.36491 10.4105 7.55553 10.2276 7.72256 10.1586C7.87601 10.0951 8.13016 10.0912 8.37598 10.0875C8.83342 10.0806 9.35188 10.0728 9.71233 9.71233C10.0728 9.35188 10.0806 8.83342 10.0875 8.37598C10.0912 8.13016 10.0951 7.87601 10.1586 7.72256C10.2276 7.55557 10.4105 7.36491 10.5873 7.18053C10.8979 6.85666 11.25 6.48949 11.25 6C11.25 5.51051 10.8979 5.14339 10.5873 4.81947ZM8.32141 5.14627L5.5714 7.77127C5.50164 7.83785 5.40892 7.875 5.31248 7.875C5.21605 7.875 5.12333 7.83785 5.05357 7.77127L3.67859 6.45877C3.64294 6.42478 3.61435 6.38409 3.59443 6.33904C3.57451 6.29399 3.56366 6.24546 3.56251 6.19621C3.56135 6.14697 3.56991 6.09798 3.58769 6.05205C3.60547 6.00611 3.63212 5.96413 3.66613 5.92849C3.70014 5.89286 3.74083 5.86428 3.78589 5.84438C3.83095 5.82448 3.87949 5.81365 3.92873 5.81251C3.97797 5.81137 4.02696 5.81994 4.07289 5.83774C4.11882 5.85554 4.16079 5.88221 4.19641 5.91623L5.31248 6.98158L7.80359 4.60373C7.83921 4.56971 7.88118 4.54304 7.92711 4.52524C7.97304 4.50744 8.02203 4.49887 8.07127 4.50001C8.12051 4.50115 8.16905 4.51198 8.21411 4.53188C8.25916 4.55178 8.29986 4.58036 8.33387 4.61599C8.36788 4.65163 8.39453 4.69361 8.41231 4.73955C8.43009 4.78548 8.43865 4.83447 8.43749 4.88371C8.43633 4.93296 8.42549 4.98149 8.40557 5.02654C8.38565 5.07159 8.35706 5.11228 8.32141 5.14627Z" fill="#F26522"/>
</svg>
