<svg width="400" height="290" viewBox="0 0 400 290" fill="none" xmlns="http://www.w3.org/2000/svg">
<rect width="400" height="290" fill="white"/>
<rect width="168.185" height="137.062" transform="matrix(0.983048 -0.183349 0.182519 0.983202 117.29 111.16)" fill="#F4F4F4"/>
<mask id="path-2-inside-1_1908_2105" fill="white">
<path d="M191.768 45.0401C191.854 44.5897 191.559 44.1544 191.108 44.0718C181.367 42.2886 171.377 42.4093 161.676 44.4304C151.705 46.5078 142.236 50.5525 133.809 56.3333C125.383 62.1141 118.164 69.518 112.565 78.1221C107.114 86.4978 103.303 95.8512 101.334 105.675C101.245 106.119 101.537 106.55 101.982 106.636C102.43 106.723 102.863 106.429 102.952 105.982C104.881 96.3757 108.61 87.2294 113.94 79.0385C119.42 70.6171 126.486 63.3705 134.733 57.7125C142.981 52.0544 152.249 48.0957 162.008 46.0624C171.494 44.086 181.264 43.9663 190.79 45.707C191.244 45.7899 191.682 45.4934 191.768 45.0401Z"/>
</mask>
<path d="M191.768 45.0401C191.854 44.5897 191.559 44.1544 191.108 44.0718C181.367 42.2886 171.377 42.4093 161.676 44.4304C151.705 46.5078 142.236 50.5525 133.809 56.3333C125.383 62.1141 118.164 69.518 112.565 78.1221C107.114 86.4978 103.303 95.8512 101.334 105.675C101.245 106.119 101.537 106.55 101.982 106.636C102.43 106.723 102.863 106.429 102.952 105.982C104.881 96.3757 108.61 87.2294 113.94 79.0385C119.42 70.6171 126.486 63.3705 134.733 57.7125C142.981 52.0544 152.249 48.0957 162.008 46.0624C171.494 44.086 181.264 43.9663 190.79 45.707C191.244 45.7899 191.682 45.4934 191.768 45.0401Z" stroke="#E6E6E6" stroke-width="2" mask="url(#path-2-inside-1_1908_2105)"/>
<mask id="path-3-inside-2_1908_2105" fill="white">
<path d="M239.548 195.405C239.718 195.769 240.151 195.925 240.512 195.751C248.58 191.856 255.83 186.446 261.868 179.811C268.07 172.998 272.872 165.027 276 156.353C279.128 147.68 280.521 138.473 280.1 129.26C279.689 120.288 277.566 111.481 273.848 103.315C273.682 102.951 273.25 102.795 272.887 102.965C272.526 103.135 272.371 103.565 272.536 103.929C276.175 111.923 278.252 120.544 278.654 129.326C279.066 138.349 277.702 147.365 274.639 155.86C271.575 164.354 266.872 172.161 260.799 178.834C254.888 185.328 247.792 190.624 239.895 194.438C239.535 194.612 239.379 195.043 239.548 195.405Z"/>
</mask>
<path d="M239.548 195.405C239.718 195.769 240.151 195.925 240.512 195.751C248.58 191.856 255.83 186.446 261.868 179.811C268.07 172.998 272.872 165.027 276 156.353C279.128 147.68 280.521 138.473 280.1 129.26C279.689 120.288 277.566 111.481 273.848 103.315C273.682 102.951 273.25 102.795 272.887 102.965C272.526 103.135 272.371 103.565 272.536 103.929C276.175 111.923 278.252 120.544 278.654 129.326C279.066 138.349 277.702 147.365 274.639 155.86C271.575 164.354 266.872 172.161 260.799 178.834C254.888 185.328 247.792 190.624 239.895 194.438C239.535 194.612 239.379 195.043 239.548 195.405Z" stroke="#E2E2E2" stroke-width="2" mask="url(#path-3-inside-2_1908_2105)"/>
<ellipse cx="187.743" cy="222.882" rx="4.47238" ry="3.73574" fill="#E3E3E3"/>
<path fill-rule="evenodd" clip-rule="evenodd" d="M288.571 150.477L272.468 151.486C271.53 154.248 270.399 156.922 269.092 159.489L280.139 170.867C273.699 181.652 264.668 190.704 253.908 197.159L242.162 186.287C239.409 187.669 236.538 188.848 233.566 189.803V205.612C227.63 207.108 221.415 207.902 215.016 207.902C208.616 207.902 202.402 207.108 196.465 205.612L196.465 189.803C193.494 188.848 190.622 187.669 187.87 186.287L176.124 197.159C165.363 190.704 156.332 181.652 149.893 170.867L161.144 159.887C159.589 156.888 158.276 153.743 157.231 150.477H141.46C139.967 144.527 139.175 138.298 139.175 131.883C139.175 125.468 139.967 119.239 141.46 113.289H157.231C158.278 110.019 159.593 106.87 161.15 103.868L149.893 92.8996C156.332 82.1143 165.363 73.0621 176.124 66.6071L187.077 77.8851C190.069 76.3265 193.207 75.0105 196.465 73.963V58.1545C202.402 56.6585 208.616 55.864 215.016 55.864C221.415 55.864 227.63 56.6585 233.566 58.1545V73.9629C236.4 74.874 239.142 75.9881 241.777 77.2882L253.908 66.6071C264.668 73.0621 273.699 82.1143 280.139 92.8996L269.092 104.277C270.558 107.156 271.801 110.167 272.8 113.289H288.571C290.064 119.239 290.857 125.468 290.857 131.883C290.857 138.298 290.064 144.527 288.571 150.477ZM215.682 166.559C235.155 166.559 250.941 150.735 250.941 131.216C250.941 111.697 235.155 95.8742 215.682 95.8742C196.208 95.8742 180.422 111.697 180.422 131.216C180.422 150.735 196.208 166.559 215.682 166.559Z" fill="#D7D7D7"/>
<path fill-rule="evenodd" clip-rule="evenodd" d="M216.069 165.839C236.019 165.839 252.192 149.899 252.192 130.235C252.192 110.571 236.019 94.6306 216.069 94.6306C196.119 94.6306 179.946 110.571 179.946 130.235C179.946 149.899 196.119 165.839 216.069 165.839ZM216.069 174.317C240.769 174.317 260.793 154.581 260.793 130.235C260.793 105.889 240.769 86.1533 216.069 86.1533C191.369 86.1533 171.345 105.889 171.345 130.235C171.345 154.581 191.369 174.317 216.069 174.317Z" fill="#ADADAD"/>
<rect width="85.3432" height="13.6458" transform="matrix(0.597042 0.80221 -0.800865 0.598845 98.705 137.783)" fill="#DDDDDD"/>
<path d="M82.2736 136.878L71.3062 120.866C70.8105 120.143 69.6903 120.362 69.5044 121.219L66.5962 134.625C66.5389 134.889 66.5909 135.165 66.7403 135.39L75.3963 148.437C75.5503 148.669 75.794 148.827 76.0688 148.872L91.8236 151.445L95.5278 155.556L105.574 147.554L103.434 144.575L106.144 127.906C106.187 127.644 106.124 127.377 105.969 127.162L95.8226 113.032C95.6297 112.763 95.3165 112.607 94.986 112.615L83.2096 112.896C82.4378 112.915 81.9777 113.764 82.3836 114.421L92.2445 130.391C93.9486 133.151 93.1316 136.765 90.4071 138.521C87.6998 140.265 84.0949 139.537 82.2736 136.878Z" fill="#DDDDDD"/>
<path d="M143.809 220.877L155.381 236.494C155.903 237.198 155.332 238.184 154.462 238.083L140.867 236.492C140.598 236.46 140.353 236.321 140.188 236.105L130.683 223.667C130.515 223.446 130.445 223.165 130.492 222.891L133.174 207.117L130.495 202.271L141.305 195.341L143.422 198.336L160.03 201.173C160.292 201.217 160.526 201.364 160.679 201.581L170.723 215.785C170.913 216.054 170.959 216.4 170.845 216.709L166.76 227.784C166.492 228.51 165.537 228.669 165.048 228.07L153.198 213.568C151.138 211.048 147.439 210.647 144.891 212.667C142.375 214.662 141.896 218.295 143.809 220.877Z" fill="#DDDDDD"/>
<g filter="url(#filter0_d_1908_2105)">
<rect width="42.6716" height="18.763" rx="1" transform="matrix(0.597042 0.80221 -0.800865 0.598845 113.774 153.182)" fill="#B7B7B7"/>
</g>
<path d="M157.928 95.1191L164.388 101.04C164.989 101.59 165.195 102.45 164.91 103.213L161.24 113.051" stroke="#BEBEBE" stroke-linecap="round" stroke-linejoin="round"/>
<mask id="path-12-inside-3_1908_2105" fill="white">
<path d="M210.901 77.3682C202.596 78.0469 194.558 80.6282 187.407 84.9128C180.255 89.1974 174.18 95.0711 169.651 102.081L174.837 105.447C178.852 99.2336 184.237 94.0269 190.576 90.2287C196.916 86.4306 204.041 84.1425 211.403 83.5408L210.901 77.3682Z"/>
</mask>
<path d="M210.901 77.3682C202.596 78.0469 194.558 80.6282 187.407 84.9128C180.255 89.1974 174.18 95.0711 169.651 102.081L174.837 105.447C178.852 99.2336 184.237 94.0269 190.576 90.2287C196.916 86.4306 204.041 84.1425 211.403 83.5408L210.901 77.3682Z" stroke="#F1F1F1" stroke-width="8" mask="url(#path-12-inside-3_1908_2105)"/>
<mask id="path-13-inside-4_1908_2105" fill="white">
<path d="M201.787 184.557C209.857 186.634 218.295 186.827 226.451 185.119C234.607 183.411 242.262 179.848 248.827 174.706L245.023 169.826C239.203 174.385 232.417 177.542 225.187 179.056C217.958 180.57 210.478 180.4 203.324 178.558L201.787 184.557Z"/>
</mask>
<path d="M201.787 184.557C209.857 186.634 218.295 186.827 226.451 185.119C234.607 183.411 242.262 179.848 248.827 174.706L245.023 169.826C239.203 174.385 232.417 177.542 225.187 179.056C217.958 180.57 210.478 180.4 203.324 178.558L201.787 184.557Z" stroke="#C8C8C8" stroke-width="8" mask="url(#path-13-inside-4_1908_2105)"/>
<path d="M138.439 239.664L306.448 206.236L308.737 215.335L140.879 247.002L138.439 239.664Z" fill="url(#paint0_linear_1908_2105)"/>
<rect width="16.6008" height="5.87296" transform="matrix(0.795396 -0.60609 0.60429 0.796764 90.8418 152.998)" fill="#B7B7B7"/>
<rect width="16.6008" height="5.87296" transform="matrix(0.795396 -0.60609 0.60429 0.796764 128.112 202.31)" fill="#B7B7B7"/>
<defs>
<filter id="filter0_d_1908_2105" x="98.1467" y="153.582" width="41.7055" height="46.668" filterUnits="userSpaceOnUse" color-interpolation-filters="sRGB">
<feFlood flood-opacity="0" result="BackgroundImageFix"/>
<feColorMatrix in="SourceAlpha" type="matrix" values="0 0 0 0 0 0 0 0 0 0 0 0 0 0 0 0 0 0 127 0" result="hardAlpha"/>
<feOffset dy="1"/>
<feGaussianBlur stdDeviation="0.5"/>
<feComposite in2="hardAlpha" operator="out"/>
<feColorMatrix type="matrix" values="0 0 0 0 0 0 0 0 0 0 0 0 0 0 0 0 0 0 0.1 0"/>
<feBlend mode="multiply" in2="BackgroundImageFix" result="effect1_dropShadow_1908_2105"/>
<feBlend mode="normal" in="SourceGraphic" in2="effect1_dropShadow_1908_2105" result="shape"/>
</filter>
<linearGradient id="paint0_linear_1908_2105" x1="304.375" y1="209.497" x2="198.287" y2="303.05" gradientUnits="userSpaceOnUse">
<stop stop-color="#4E4C74" stop-opacity="0"/>
<stop offset="0.504558" stop-color="white" stop-opacity="0.22"/>
<stop offset="1" stop-color="#4E4C74" stop-opacity="0"/>
</linearGradient>
</defs>
</svg>
