<svg width="12" height="13" viewBox="0 0 12 13" fill="none" xmlns="http://www.w3.org/2000/svg">
<path d="M0.375 7.25C0.164062 7.25 0 7.4375 0 7.625V8.375C0 8.58594 0.164062 8.75 0.375 8.75H3V7.25H0.375ZM11.8359 2.96094L9.53906 0.664062C9.42188 0.570312 9.28125 0.5 9.14062 0.5H9V3.5H12V3.35938C12 3.21875 11.9297 3.07812 11.8359 2.96094ZM8.25 3.6875V0.5H3.5625C3.23438 0.5 3 0.757812 3 1.0625V7.25H6V5.72656C6 5.39844 6.39844 5.23438 6.63281 5.46875L8.88281 7.71875C9.02344 7.88281 9.02344 8.14062 8.88281 8.28125L6.63281 10.5547C6.39844 10.7891 5.97656 10.625 5.97656 10.2969V8.75H3V11.9375C3 12.2656 3.23438 12.5 3.5625 12.5H11.4375C11.7422 12.5 12 12.2656 12 11.9375V4.25H8.8125C8.48438 4.25 8.25 4.01562 8.25 3.6875Z" fill="white"/>
</svg>
