<svg width="18" height="19" viewBox="0 0 18 19" fill="none" xmlns="http://www.w3.org/2000/svg">
<path d="M17.7188 9.25C17.6836 4.43359 13.7812 0.53125 9 0.53125C6.64453 0.53125 4.53516 1.48047 2.95312 2.95703L1.23047 1.23438C0.878906 0.882812 0.28125 1.12891 0.28125 1.62109V6.71875C0.28125 7.03516 0.527344 7.28125 0.84375 7.28125H5.94141C6.43359 7.28125 6.67969 6.68359 6.32812 6.33203L4.53516 4.53906C5.69531 3.44922 7.27734 2.78125 9 2.78125C12.5508 2.78125 15.4688 5.69922 15.4688 9.25C15.4688 12.8359 12.5508 15.7188 9 15.7188C7.45312 15.7188 6.08203 15.2266 4.95703 14.3477C4.64062 14.0664 4.14844 14.1016 3.83203 14.418L3.44531 14.8047C3.09375 15.1562 3.12891 15.7539 3.51562 16.0703C4.99219 17.2656 6.92578 18.0039 9 17.9688C13.7812 17.9688 17.7188 14.0664 17.7188 9.25ZM11.3555 12.0273L11.6719 11.5703C11.9883 11.2188 11.918 10.6914 11.5312 10.4102L10.125 9.28516V5.59375C10.125 5.13672 9.73828 4.75 9.28125 4.75H8.71875C8.22656 4.75 7.875 5.13672 7.875 5.59375V10.375L10.1602 12.168C10.5117 12.4492 11.0391 12.3789 11.3555 12.0273Z" fill="#00476F"/>
</svg>
