<svg width="88" height="58" viewBox="0 0 88 58" fill="none" xmlns="http://www.w3.org/2000/svg">
<rect y="18.6462" width="50.0738" height="37" rx="4" transform="rotate(-9.86822 0 18.6462)" fill="#F0F0F0"/>
<mask id="path-2-inside-1_2012_2803" fill="white">
<path d="M64.831 20.4578C65.3792 20.3907 65.7729 19.8909 65.6663 19.349C65.3817 17.9017 64.8665 16.5071 64.1386 15.2192C63.2464 13.6407 62.052 12.2534 60.6237 11.1365C59.1953 10.0195 57.561 9.19486 55.8139 8.70955C54.3885 8.3136 52.9109 8.14987 51.4377 8.22259C50.8861 8.24982 50.4959 8.75241 50.563 9.3006L50.8521 11.6633C50.9191 12.2115 51.4185 12.5959 51.9707 12.5873C52.8711 12.5732 53.7706 12.6881 54.6415 12.9301C55.8343 13.2614 56.9502 13.8245 57.9254 14.587C58.9006 15.3496 59.7161 16.2968 60.3252 17.3746C60.77 18.1615 61.0984 19.0068 61.3018 19.884C61.4266 20.422 61.9201 20.8139 62.4682 20.7469L64.831 20.4578Z"/>
</mask>
<path d="M64.831 20.4578C65.3792 20.3907 65.7729 19.8909 65.6663 19.349C65.3817 17.9017 64.8665 16.5071 64.1386 15.2192C63.2464 13.6407 62.052 12.2534 60.6237 11.1365C59.1953 10.0195 57.561 9.19486 55.8139 8.70955C54.3885 8.3136 52.9109 8.14987 51.4377 8.22259C50.8861 8.24982 50.4959 8.75241 50.563 9.3006L50.8521 11.6633C50.9191 12.2115 51.4185 12.5959 51.9707 12.5873C52.8711 12.5732 53.7706 12.6881 54.6415 12.9301C55.8343 13.2614 56.9502 13.8245 57.9254 14.587C58.9006 15.3496 59.7161 16.2968 60.3252 17.3746C60.77 18.1615 61.0984 19.0068 61.3018 19.884C61.4266 20.422 61.9201 20.8139 62.4682 20.7469L64.831 20.4578Z" stroke="#D1D1D1" stroke-width="16" mask="url(#path-2-inside-1_2012_2803)"/>
<path fill-rule="evenodd" clip-rule="evenodd" d="M63.9673 10.1647C70.5111 16.7085 70.5111 27.3181 63.9673 33.8618C57.4235 40.4056 46.814 40.4056 40.2702 33.8618C33.7264 27.3181 33.7264 16.7085 40.2702 10.1647C46.814 3.62096 57.4235 3.62096 63.9673 10.1647ZM69.6884 35.2802C76.2192 26.6539 75.5513 14.3143 67.6845 6.44754C59.0878 -2.14918 45.1497 -2.14918 36.553 6.44754C27.9563 15.0443 27.9563 28.9823 36.553 37.579C44.193 45.219 56.0517 46.0693 64.6307 40.1297L72.0984 46.175L75.8156 42.4578L69.6884 35.2802Z" fill="#D1D1D1"/>
<path fill-rule="evenodd" clip-rule="evenodd" d="M66.7655 45.0033C66.375 45.3938 66.375 46.0269 66.7655 46.4175L67.2099 46.8618C67.6005 47.2524 68.2336 47.2524 68.6241 46.8618L68.8464 46.6396L80.1144 56.1191C82.0197 57.722 84.8347 57.6009 86.5954 55.8402C88.469 53.9666 88.469 50.9289 86.5954 49.0553L76.5131 38.9729L76.9676 38.5184C77.3581 38.1279 77.3581 37.4947 76.9676 37.1042L76.5232 36.6598C76.1327 36.2693 75.4995 36.2693 75.109 36.6598L66.7655 45.0033Z" fill="#B4B4B4"/>
<path d="M76.5255 38.863L68.9688 46.7484L78.1683 40.5058L76.5255 38.863Z" fill="#D1D1D1"/>
<path d="M9.29934 31.298C9.44432 30.9039 9.3276 30.4611 9.00715 30.1897L7.16003 28.6251C6.69012 28.2271 6.86394 27.4648 7.45993 27.3098C7.70342 27.2464 7.96246 27.3077 8.15176 27.4734L10.1159 29.1927C10.126 29.2016 10.1399 29.2049 10.153 29.2015C10.1664 29.198 10.1771 29.188 10.1815 29.1749L10.9896 26.7587C11.0734 26.508 11.2783 26.3167 11.5341 26.2502C12.1489 26.0903 12.6875 26.6916 12.4611 27.2851L11.6122 29.5111C11.4619 29.9053 11.5751 30.3514 11.8952 30.6262L13.8153 32.2747C14.2868 32.6795 14.1091 33.4473 13.5077 33.6037C13.2596 33.6682 12.9958 33.605 12.8038 33.4351L10.7976 31.6596C10.7874 31.6506 10.7735 31.6473 10.7603 31.6507C10.747 31.6542 10.7363 31.6641 10.7319 31.6771L9.88503 34.1848C9.80161 34.4318 9.59935 34.6201 9.34704 34.6857C8.74288 34.8429 8.21116 34.2563 8.42667 33.6704L9.29934 31.298Z" fill="#B4B4B4"/>
<path d="M22.3677 28.4977C22.5127 28.1036 22.396 27.6609 22.0755 27.3894L20.2284 25.8249C19.7585 25.4268 19.9323 24.6645 20.5283 24.5095C20.7718 24.4461 21.0308 24.5074 21.2201 24.6731L23.1842 26.3924C23.1944 26.4013 23.2083 26.4046 23.2214 26.4012C23.2348 26.3977 23.2455 26.3877 23.2498 26.3746L24.0579 23.9584C24.1418 23.7077 24.3466 23.5164 24.6025 23.4499C25.2172 23.29 25.7559 23.8913 25.5295 24.4849L24.6806 26.7108C24.5303 27.105 24.6435 27.5511 24.9635 27.8259L26.8837 29.4745C27.3552 29.8792 27.1774 30.647 26.576 30.8034C26.328 30.8679 26.0641 30.8047 25.8722 30.6348L23.866 28.8594C23.8558 28.8504 23.8418 28.847 23.8287 28.8504C23.8154 28.8539 23.8047 28.8638 23.8003 28.8768L22.9534 31.3845C22.87 31.6315 22.6677 31.8198 22.4154 31.8854C21.8112 32.0426 21.2795 31.456 21.495 30.8701L22.3677 28.4977Z" fill="#B4B4B4"/>
<mask id="path-8-inside-2_2012_2803" fill="white">
<path d="M12.6575 42.2357C12.3327 42.0767 12.1965 41.6833 12.3754 41.369C13.1114 40.0764 14.115 38.9526 15.3218 38.0745C16.7053 37.0677 18.3139 36.4142 20.0077 36.171C21.7014 35.9279 23.4289 36.1023 25.0398 36.6791C26.4449 37.1823 27.7242 37.9783 28.7941 39.0116C29.0542 39.2628 29.0342 39.6786 28.7673 39.9226C28.5004 40.1665 28.0878 40.146 27.8254 39.8971C26.901 39.0201 25.8025 38.3432 24.5983 37.912C23.1883 37.4071 21.6763 37.2544 20.1938 37.4673C18.7113 37.6802 17.3033 38.2521 16.0923 39.1333C15.0582 39.8859 14.1945 40.8446 13.5542 41.9462C13.3724 42.2589 12.9823 42.3947 12.6575 42.2357Z"/>
</mask>
<path d="M12.6575 42.2357C12.3327 42.0767 12.1965 41.6833 12.3754 41.369C13.1114 40.0764 14.115 38.9526 15.3218 38.0745C16.7053 37.0677 18.3139 36.4142 20.0077 36.171C21.7014 35.9279 23.4289 36.1023 25.0398 36.6791C26.4449 37.1823 27.7242 37.9783 28.7941 39.0116C29.0542 39.2628 29.0342 39.6786 28.7673 39.9226C28.5004 40.1665 28.0878 40.146 27.8254 39.8971C26.901 39.0201 25.8025 38.3432 24.5983 37.912C23.1883 37.4071 21.6763 37.2544 20.1938 37.4673C18.7113 37.6802 17.3033 38.2521 16.0923 39.1333C15.0582 39.8859 14.1945 40.8446 13.5542 41.9462C13.3724 42.2589 12.9823 42.3947 12.6575 42.2357Z" stroke="#D9D9D9" stroke-width="2" mask="url(#path-8-inside-2_2012_2803)"/>
</svg>
