<svg width="24" height="24" viewBox="0 0 24 24" fill="none" xmlns="http://www.w3.org/2000/svg">
<path opacity="0.802" d="M7.42611 4.80005H16.3109C16.4373 4.80005 16.5584 4.85024 16.6478 4.93958C16.7371 5.02893 16.7873 5.1501 16.7873 5.27645V6.58026H6.94971V5.27645C6.94971 5.1501 6.9999 5.02893 7.08924 4.93958C7.17858 4.85024 7.29976 4.80005 7.42611 4.80005Z" fill="white"/>
<path opacity="0.802" d="M6.9502 12.575V18.5689C6.95035 18.6966 7.00081 18.8191 7.09066 18.9099C7.18051 19.0006 7.3025 19.0523 7.43019 19.0537H16.3024C16.4309 19.0536 16.5541 19.0025 16.645 18.9116C16.7359 18.8207 16.787 18.6975 16.7872 18.5689V12.575H6.9502ZM13.1692 17.8825H8.7538C8.66126 17.8727 8.57562 17.829 8.51339 17.7598C8.45115 17.6907 8.41672 17.6009 8.41672 17.5078C8.41672 17.4148 8.45115 17.325 8.51339 17.2558C8.57562 17.1867 8.66126 17.143 8.7538 17.1331H13.1692C13.2617 17.143 13.3474 17.1867 13.4096 17.2558C13.4718 17.325 13.5063 17.4148 13.5063 17.5078C13.5063 17.6009 13.4718 17.6907 13.4096 17.7598C13.3474 17.829 13.2617 17.8727 13.1692 17.8825ZM14.9836 16.2625H8.7538C8.66126 16.2527 8.57562 16.209 8.51339 16.1398C8.45115 16.0707 8.41672 15.9809 8.41672 15.8878C8.41672 15.7948 8.45115 15.705 8.51339 15.6358C8.57562 15.5667 8.66126 15.523 8.7538 15.5131H14.9836C15.0761 15.523 15.1618 15.5667 15.224 15.6358C15.2862 15.705 15.3207 15.7948 15.3207 15.8878C15.3207 15.9809 15.2862 16.0707 15.224 16.1398C15.1618 16.209 15.0761 16.2527 14.9836 16.2625ZM14.9836 14.4931H8.7538C8.66126 14.4833 8.57562 14.4396 8.51339 14.3704C8.45115 14.3013 8.41672 14.2115 8.41672 14.1184C8.41672 14.0254 8.45115 13.9356 8.51339 13.8664C8.57562 13.7973 8.66126 13.7536 8.7538 13.7437H14.9836C15.0761 13.7536 15.1618 13.7973 15.224 13.8664C15.2862 13.9356 15.3207 14.0254 15.3207 14.1184C15.3207 14.2115 15.2862 14.3013 15.224 14.3704C15.1618 14.4396 15.0761 14.4833 14.9836 14.4931Z" fill="white"/>
<path d="M17.929 7.33081H5.809C5.54113 7.33113 5.28435 7.4378 5.09511 7.62739C4.90586 7.81697 4.79965 8.07394 4.7998 8.34181V12.8676C4.79996 13.1352 4.90634 13.3918 5.09557 13.5811C5.2848 13.7703 5.5414 13.8767 5.809 13.8768H6.2008V12.2022C6.20065 12.153 6.21022 12.1042 6.22898 12.0588C6.24774 12.0133 6.27531 11.9719 6.31011 11.9371C6.34491 11.9023 6.38624 11.8748 6.43174 11.856C6.47724 11.8372 6.52599 11.8277 6.5752 11.8278H17.1622C17.2115 11.8276 17.2603 11.8371 17.3059 11.8558C17.3514 11.8745 17.3928 11.9021 17.4277 11.9369C17.4625 11.9717 17.4902 12.0131 17.509 12.0586C17.5278 12.1041 17.5374 12.153 17.5372 12.2022V13.878H17.929C18.1968 13.8779 18.4537 13.7716 18.6433 13.5824C18.8329 13.3932 18.9398 13.1366 18.9406 12.8688V8.34181C18.9403 8.07367 18.8336 7.81661 18.6439 7.62707C18.4543 7.43752 18.1971 7.33097 17.929 7.33081ZM17.0416 9.92702C16.9039 9.92725 16.7693 9.88667 16.6547 9.81038C16.5401 9.7341 16.4507 9.62556 16.3978 9.49847C16.3449 9.37138 16.3309 9.23147 16.3575 9.09641C16.3842 8.96135 16.4502 8.83722 16.5474 8.73972C16.6446 8.64221 16.7685 8.57571 16.9034 8.54862C17.0384 8.52154 17.1784 8.53508 17.3056 8.58754C17.4329 8.64 17.5418 8.72901 17.6184 8.84334C17.6951 8.95766 17.7362 9.09216 17.7364 9.22981C17.7366 9.41446 17.6634 9.59162 17.533 9.72235C17.4026 9.85308 17.2257 9.9267 17.041 9.92702H17.0416Z" fill="white"/>
</svg>
